<?xml version="1.0" encoding="iso-8859-1"?>
<!-- Generator: Adobe Illustrator 19.0.0, SVG Export Plug-In . SVG Version: 6.00 Build 0)  -->
<svg version="1.1" id="Layer_1" xmlns="http://www.w3.org/2000/svg" xmlns:xlink="http://www.w3.org/1999/xlink" x="0px" y="0px"
	 viewBox="0 0 511.999 511.999" style="enable-background:new 0 0 511.999 511.999;" xml:space="preserve">
<path style="fill:#2BA5B1;" d="M57.348,440.15c0,35.473,28.756,64.229,64.229,64.229H290.71c35.472,0,64.229-28.756,64.229-64.229
	V141.608H57.348V440.15z"/>
<rect x="91.048" y="277.971" style="fill:#FFE285;" width="73.712" height="73.713"/>
<path style="fill:#00649D;" d="M416.205,369.944v-93.65c0-19.475-15.788-35.263-35.262-35.263h-26.004v-38.447h26.004
	c40.709,0,73.709,33.001,73.709,73.71v93.65"/>
<g>
	<path style="fill:#53180F;" d="M115.198,109.5c0-10.067,3.75-14.766,8.497-20.717c5.269-6.603,11.826-14.821,11.826-30.223
		s-6.557-23.621-11.826-30.223c-4.748-5.95-8.497-10.649-8.497-20.717V0H99.955v7.621c0,15.403,6.557,23.621,11.826,30.223
		c4.748,5.95,8.497,10.649,8.497,20.717s-3.75,14.766-8.497,20.717c-5.269,6.603-11.826,14.82-11.826,30.223v7.621h15.242V109.5z"/>
	<path style="fill:#53180F;" d="M174.135,109.5c0-10.067,3.75-14.766,8.497-20.717c5.269-6.603,11.826-14.821,11.826-30.223
		s-6.557-23.621-11.826-30.223c-4.748-5.95-8.497-10.649-8.497-20.717V0h-15.242v7.621c0,15.403,6.557,23.621,11.826,30.223
		c4.748,5.95,8.497,10.649,8.497,20.717s-3.75,14.766-8.497,20.717c-5.269,6.603-11.826,14.82-11.826,30.223v7.621h15.242V109.5z"/>
	<path style="fill:#53180F;" d="M233.071,109.5c0-10.067,3.75-14.766,8.497-20.717c5.269-6.603,11.826-14.821,11.826-30.223
		s-6.557-23.621-11.826-30.223c-4.748-5.95-8.497-10.649-8.497-20.717V0h-15.242v7.621c0,15.403,6.557,23.621,11.826,30.223
		c4.748,5.95,8.497,10.649,8.497,20.717s-3.75,14.766-8.497,20.717c-5.269,6.603-11.826,14.82-11.826,30.223v7.621h15.242V109.5z"/>
	<path style="fill:#53180F;" d="M292.008,109.5c0-10.067,3.75-14.766,8.497-20.717c5.269-6.603,11.826-14.821,11.826-30.223
		s-6.557-23.621-11.826-30.223c-4.747-5.95-8.497-10.649-8.497-20.717V0h-15.242v7.621c0,15.403,6.557,23.621,11.826,30.223
		c4.747,5.95,8.497,10.649,8.497,20.717s-3.75,14.766-8.497,20.717c-5.269,6.603-11.826,14.82-11.826,30.223v7.621h15.242V109.5z"/>
	<path style="fill:#53180F;" d="M135.521,235.652h-15.242v34.694H83.423v88.953h88.952v-88.953H135.52v-34.694H135.521z
		 M157.133,344.057H98.666v-58.468h58.467V344.057z"/>
	<path style="fill:#53180F;" d="M380.942,194.963h-18.382v-60.976H49.726v306.162c0,39.618,32.232,71.85,71.85,71.85H290.71
		c39.618,0,71.85-32.232,71.85-71.85V248.653h18.382c15.241,0,27.641,12.4,27.641,27.642v93.65h15.242v-93.65
		c0-23.647-19.237-42.884-42.883-42.884h-18.382v-23.204h18.382c36.442,0,66.088,29.648,66.088,66.089v93.65h15.242v-93.651
		C462.273,231.448,425.788,194.963,380.942,194.963z M347.317,440.15c0,31.214-25.394,56.607-56.607,56.607H121.576
		c-31.213,0-56.607-25.394-56.607-56.607V149.23h55.31v66.097h15.242V149.23h211.797v45.733v53.689V440.15H347.317z"/>
</g>
<g>
</g>
<g>
</g>
<g>
</g>
<g>
</g>
<g>
</g>
<g>
</g>
<g>
</g>
<g>
</g>
<g>
</g>
<g>
</g>
<g>
</g>
<g>
</g>
<g>
</g>
<g>
</g>
<g>
</g>
</svg>
