<?xml version="1.0" encoding="iso-8859-1"?>
<!-- Generator: Adobe Illustrator 19.0.0, SVG Export Plug-In . SVG Version: 6.00 Build 0)  -->
<svg version="1.1" id="Layer_1" xmlns="http://www.w3.org/2000/svg" xmlns:xlink="http://www.w3.org/1999/xlink" x="0px" y="0px"
	 viewBox="0 0 509.287 509.287" style="enable-background:new 0 0 509.287 509.287;" xml:space="preserve">
<circle style="fill:#0090FF;" cx="254.644" cy="254.644" r="254.644"/>
<path style="fill:#FFFFFC;" d="M126.135,138.003c21.362-27.465,42.723-55.269,69.849-76.63s61.033-36.959,95.619-35.603
	c46.453,2.034,85.785,32.89,121.727,62.389c29.16,23.735,60.694,52.556,62.389,90.193c2.034,45.775-41.028,80.36-53.574,124.44
	c-13.902,47.809,8.477,106.469-23.057,145.123c-14.58,17.971-38.315,26.787-61.711,28.482c-23.396,1.695-46.453-3.052-69.171-7.799
	c-51.2-10.511-103.078-21.362-148.853-46.114c-45.775-24.752-85.785-65.78-96.297-116.98
	c-12.546-57.642,18.988-121.727,72.223-147.497C105.452,152.922,119.015,146.819,126.135,138.003z"/>
<circle style="fill:#FBD303;" cx="251.592" cy="250.914" r="91.211"/>
<g>
</g>
<g>
</g>
<g>
</g>
<g>
</g>
<g>
</g>
<g>
</g>
<g>
</g>
<g>
</g>
<g>
</g>
<g>
</g>
<g>
</g>
<g>
</g>
<g>
</g>
<g>
</g>
<g>
</g>
</svg>
