<?xml version="1.0" encoding="iso-8859-1"?>
<!-- Generator: Adobe Illustrator 19.0.0, SVG Export Plug-In . SVG Version: 6.00 Build 0)  -->
<svg version="1.1" id="Layer_1" xmlns="http://www.w3.org/2000/svg" xmlns:xlink="http://www.w3.org/1999/xlink" x="0px" y="0px"
	 viewBox="0 0 509.287 509.287" style="enable-background:new 0 0 509.287 509.287;" xml:space="preserve">
<circle style="fill:#4F5565;" cx="254.644" cy="254.644" r="254.644"/>
<path style="fill:#F1F3F7;" d="M281.77,17.293h-54.252c-5.764,0-10.511,4.747-10.511,10.511v20.683h74.935V27.804
	C292.281,22.04,287.534,17.293,281.77,17.293z"/>
<rect x="222.093" y="48.148" style="fill:#AD261C;" width="65.102" height="4.747"/>
<path style="fill:#D54232;" d="M289.568,52.895h-69.51c-1.695,0-2.713,1.356-2.713,2.713c0,1.695,1.356,2.713,2.713,2.713h69.51
	c1.695,0,2.713-1.356,2.713-2.713C292.281,54.252,290.924,52.895,289.568,52.895z"/>
<path style="fill:#F0582F;" d="M323.815,264.816c-9.155-28.482-33.907-107.825-33.907-138.003V67.475l-2.374-8.816h-65.78
	l-2.374,8.816v59.677c0,30.177-24.752,109.521-33.907,138.003c-2.374,7.121-3.391,14.241-3.391,21.701v184.456
	c0,11.528,9.494,21.023,21.023,21.023h51.539l0,0h51.539c11.528,0,21.022-9.494,21.022-21.023V286.517
	C327.205,279.057,325.849,271.936,323.815,264.816z"/>
<ellipse style="fill:#FFFFFC;" cx="254.644" cy="350.94" rx="65.78" ry="90.193"/>
<ellipse style="fill:#FBD303;" cx="254.644" cy="350.94" rx="60.694" ry="83.073"/>
<ellipse style="fill:#FFFFFC;" cx="254.644" cy="350.94" rx="55.269" ry="75.613"/>
<path style="fill:#F0582F;" d="M300.758,355.009c0,24.413-20.683,44.079-46.114,44.079s-46.114-19.666-46.114-44.079
	c0-24.413,20.683-33.568,46.114-33.568S300.758,330.596,300.758,355.009z"/>
<path style="fill:#5FC13E;" d="M254.644,302.792L254.644,302.792c-10.511,6.103-10.511,15.936,0,21.701l0,0
	C265.155,318.389,265.155,308.895,254.644,302.792z"/>
<g>
	<path style="fill:#71D456;" d="M282.109,312.625L282.109,312.625c-12.546-4.069-24.752,1.356-27.465,12.207l0,0
		C267.189,328.901,279.396,323.475,282.109,312.625z"/>
	<path style="fill:#71D456;" d="M227.179,312.625L227.179,312.625c12.546-4.069,24.752,1.356,27.465,12.207l0,0
		C242.098,328.901,229.891,323.475,227.179,312.625z"/>
</g>
<g>
	<rect x="219.38" y="86.124" style="fill:#FCFCFD;" width="70.527" height="32.551"/>
	<ellipse style="fill:#FCFCFD;" cx="254.644" cy="102.4" rx="28.143" ry="30.856"/>
</g>
<ellipse style="fill:#FBD303;" cx="254.644" cy="102.4" rx="23.735" ry="26.109"/>
<ellipse style="fill:#FFFFFC;" cx="254.644" cy="102.4" rx="20.344" ry="22.379"/>
<g>
</g>
<g>
</g>
<g>
</g>
<g>
</g>
<g>
</g>
<g>
</g>
<g>
</g>
<g>
</g>
<g>
</g>
<g>
</g>
<g>
</g>
<g>
</g>
<g>
</g>
<g>
</g>
<g>
</g>
</svg>
