<?xml version="1.0" encoding="iso-8859-1"?>
<!-- Generator: Adobe Illustrator 19.0.0, SVG Export Plug-In . SVG Version: 6.00 Build 0)  -->
<svg version="1.1" id="Layer_1" xmlns="http://www.w3.org/2000/svg" xmlns:xlink="http://www.w3.org/1999/xlink" x="0px" y="0px"
	 viewBox="0 0 509.287 509.287" style="enable-background:new 0 0 509.287 509.287;" xml:space="preserve">
<circle style="fill:#71D456;" cx="254.644" cy="254.644" r="254.644"/>
<path style="fill:#F1F3F7;" d="M460.8,96.297h-77.648v28.482H460.8c4.747,0,8.816,4.069,8.816,8.816v178.013
	c0,4.747-4.069,8.816-8.816,8.816h-77.648v28.482H460.8c20.683,0,37.298-16.954,37.298-37.298V133.934
	C498.098,113.25,481.144,96.297,460.8,96.297z"/>
<path style="fill:#FCFCFD;" d="M362.808,451.306H152.922c-31.534,0-56.964-25.43-56.964-56.964V72.223h323.476v321.78
	C419.433,425.875,394.003,451.306,362.808,451.306z"/>
<path style="fill:#F8B517;" d="M251.592,244.472l-21.023-12.885V72.223c0-7.799-6.442-14.241-14.241-14.241
	c-7.799,0-14.241,6.442-14.241,14.241v159.025l-22.718,13.224c-4.069,2.374-6.442,6.442-6.442,11.189v80.699
	c0,7.121,5.764,12.885,12.885,12.885h59.338c7.121,0,12.885-5.764,12.885-12.885v-80.699
	C257.695,250.914,255.322,246.845,251.592,244.472z"/>
<g>
</g>
<g>
</g>
<g>
</g>
<g>
</g>
<g>
</g>
<g>
</g>
<g>
</g>
<g>
</g>
<g>
</g>
<g>
</g>
<g>
</g>
<g>
</g>
<g>
</g>
<g>
</g>
<g>
</g>
</svg>
