<?xml version="1.0" encoding="iso-8859-1"?>
<!-- Generator: Adobe Illustrator 19.0.0, SVG Export Plug-In . SVG Version: 6.00 Build 0)  -->
<svg version="1.1" id="Layer_1" xmlns="http://www.w3.org/2000/svg" xmlns:xlink="http://www.w3.org/1999/xlink" x="0px" y="0px"
	 viewBox="0 0 509.287 509.287" style="enable-background:new 0 0 509.287 509.287;" xml:space="preserve">
<circle style="fill:#4F5565;" cx="254.644" cy="254.644" r="254.644"/>
<path style="fill:#F8B517;" d="M429.944,122.744c0-36.959-78.326-66.797-175.301-66.797c-96.636,0-175.301,29.838-175.301,66.797
	v48.826c0-24.752,0-24.752,0,0c0,8.816,4.408,16.954,12.207,24.413V435.37l10.85,17.971l0,0l0,0h304.148l0,0l0,0l10.85-17.971
	V195.984c7.799-7.46,12.207-15.936,12.207-24.413c0-2.034,0-2.034,0,0v-48.826H429.944z"/>
<path style="fill:#FBD303;" d="M429.944,171.571c0-36.959-78.326-66.797-175.301-66.797c-96.636,0-175.301,29.838-175.301,66.797
	c0,12.207,8.477,23.396,23.057,33.229v248.54h304.148V204.8C421.468,194.967,429.944,183.438,429.944,171.571z"/>
<g>
	<circle style="fill:#F8B517;" cx="272.954" cy="215.311" r="26.109"/>
	<circle style="fill:#F8B517;" cx="176.657" cy="305.166" r="26.109"/>
	<circle style="fill:#F8B517;" cx="297.706" cy="362.469" r="30.856"/>
	<circle style="fill:#F8B517;" cx="167.502" cy="182.421" r="17.293"/>
</g>
<g>
</g>
<g>
</g>
<g>
</g>
<g>
</g>
<g>
</g>
<g>
</g>
<g>
</g>
<g>
</g>
<g>
</g>
<g>
</g>
<g>
</g>
<g>
</g>
<g>
</g>
<g>
</g>
<g>
</g>
</svg>
