<?xml version="1.0" encoding="iso-8859-1"?>
<!-- Generator: Adobe Illustrator 19.0.0, SVG Export Plug-In . SVG Version: 6.00 Build 0)  -->
<svg version="1.1" id="Layer_1" xmlns="http://www.w3.org/2000/svg" xmlns:xlink="http://www.w3.org/1999/xlink" x="0px" y="0px"
	 viewBox="0 0 501.551 501.551" style="enable-background:new 0 0 501.551 501.551;" xml:space="preserve">
<path style="fill:#FF7058;" d="M424.227,65.829H77.321c-12.539,0-22.988,10.449-22.988,22.988v389.747
	c0,12.539,10.449,22.988,22.988,22.988h346.906c12.539,0,22.988-10.449,22.988-22.988V88.816
	C447.215,76.278,436.766,65.829,424.227,65.829z"/>
<path style="fill:#FFD15C;" d="M413.778,0H87.77C75.231,0,64.782,10.449,64.782,22.988v43.886h371.984V22.988
	C436.766,10.449,426.317,0,413.778,0z"/>
<path style="fill:#F2F2F2;" d="M447.215,269.584v107.624h-106.58c-15.673,44.931-50.155,76.278-89.861,76.278
	s-74.188-31.347-89.861-76.278H54.333V269.584h106.58c15.673-44.931,50.155-76.278,89.861-76.278s74.188,31.347,89.861,76.278
	H447.215z"/>
<path style="fill:#F1543F;" d="M447.215,88.816v68.963c-9.404,0-18.808-4.18-26.122-10.449l0,0l-3.135-3.135
	c-3.135-3.135-7.314-4.18-12.539-4.18s-10.449,2.09-13.584,5.224c-10.449,10.449-24.033,15.673-37.616,15.673
	c-14.629,0-28.212-5.224-37.616-15.673c-3.135-4.18-8.359-5.224-13.584-5.224c-5.225,0-10.449,2.09-13.584,5.224
	c-10.449,10.449-24.033,15.673-37.616,15.673c-14.629,0-28.212-5.224-37.616-15.673c-3.135-3.135-8.359-5.224-13.584-5.224
	s-10.449,2.09-13.584,5.224c-10.449,10.449-22.988,15.673-37.616,15.673c-14.629,0-28.212-5.224-37.616-15.673
	c-3.135-3.135-8.359-5.224-13.584-5.224c-4.18,0-9.404,2.09-12.539,4.18l-3.135,3.135l0,0c-7.314,6.269-16.718,10.449-27.167,10.449
	V88.816c0-12.539,10.449-22.988,22.988-22.988h346.906C436.766,65.829,447.215,76.278,447.215,88.816z"/>
<path style="fill:#FFD15C;" d="M477.517,103.445c-5.224-16.718-16.718-34.482-41.796-36.571H65.827
	c-24.033,2.09-35.527,19.853-41.796,36.571c-9.404,27.167,25.078,51.2,45.976,31.347l0,0c14.629-13.584,36.571-13.584,51.2,0
	c7.314,7.314,16.718,10.449,26.122,10.449c9.404,0,18.808-3.135,26.122-10.449c7.314-7.314,16.718-10.449,26.122-10.449
	c9.404,0,18.808,3.135,26.122,10.449c7.314,7.314,16.718,10.449,26.122,10.449c9.404,0,18.808-3.135,26.122-10.449
	c7.314-7.314,16.718-10.449,26.122-10.449s18.808,3.135,26.122,10.449c7.314,7.314,16.718,10.449,26.122,10.449
	c9.404,0,18.808-3.135,26.122-10.449c13.584-13.584,36.571-14.629,51.2,0l0,0C452.439,153.6,486.921,130.612,477.517,103.445z"/>
<g>
	<path style="fill:#F1543F;" d="M452.439,44.931H49.109c-10.449,0-19.853,8.359-19.853,19.853v3.135
		c0,10.449,8.359,19.853,19.853,19.853h402.286c10.449,0,19.853-8.359,19.853-19.853v-3.135
		C471.247,53.29,462.888,44.931,452.439,44.931z"/>
	<circle style="fill:#F1543F;" cx="210.023" cy="342.727" r="31.347"/>
	<circle style="fill:#F1543F;" cx="291.525" cy="342.727" r="31.347"/>
</g>
<path style="fill:#231F20;" d="M270.627,282.122h3.135c2.09,0,4.18-2.09,4.18-4.18c0-2.09-2.09-4.18-4.18-4.18h-47.02
	c-2.09,0-4.18,2.09-4.18,4.18c0,2.09,2.09,4.18,4.18,4.18h3.135c-10.449,7.314-21.943,19.853-21.943,42.841
	c0,2.09,2.09,4.18,4.18,4.18c2.09,0,4.18-2.09,4.18-4.18c0-33.437,28.212-41.796,33.437-42.841
	c5.224,1.045,33.437,9.404,33.437,42.841c0,2.09,2.09,4.18,4.18,4.18c2.09,0,4.18-2.09,4.18-4.18
	C292.57,301.975,282.121,288.392,270.627,282.122z"/>
<g>
</g>
<g>
</g>
<g>
</g>
<g>
</g>
<g>
</g>
<g>
</g>
<g>
</g>
<g>
</g>
<g>
</g>
<g>
</g>
<g>
</g>
<g>
</g>
<g>
</g>
<g>
</g>
<g>
</g>
</svg>
